# xmcd
#
# Track frame offsets:
#	150
#	12928
#	26337
#	38312
#	53669
#	89148
#	104267
#	120196
#	133299
#	149869
#	159228
#	175188
#	201093
#	213421
#	228812
#	247060
#	262475
#	274561
#
# Disc length: 3710 seconds
# Revision: 0
# Processed by: cddbd v1.5.2PL0 Copyright (c) Steve Scherf et al.
# Submitted via: dBpowerAMP V12.0
#
DISCID=fc0e7c12
DTITLE=The blues brothers - The blues brothers complete
DYEAR=1998
DGENRE=Blues
TTITLE0=Shake a tail feather
TTITLE1=The old landmark
TTITLE2=Theme from rawhide
TTITLE3=Minnie the moocher
TTITLE4=Sweet home Chicago
TTITLE5=Jailhouse rock
TTITLE6=Who's making love
TTITLE7=Do you love me
TTITLE8=Guilty
TTITLE9=Perry Mason theme
TTITLE10=Riot in cell block number nine
TTITLE11=Green onions
TTITLE12=I ain't got you
TTITLE13=From the bottom
TTITLE14=Going back to Miami
TTITLE15=Expressway to your heart
TTITLE16=Excusez moi mon cherie
TTITLE17=Closing: i can't turn you loose
EXTD=
EXTT0=
EXTT1=
EXTT2=
EXTT3=
EXTT4=
EXTT5=
EXTT6=
EXTT7=
EXTT8=
EXTT9=
EXTT10=
EXTT11=
EXTT12=
EXTT13=
EXTT14=
EXTT15=
EXTT16=
EXTT17=
PLAYORDER=
